<mxfile host="Electron" modified="2025-04-28T14:29:50.726Z" agent="Mozilla/5.0 (X11; Linux x86_64) AppleWebKit/537.36 (KHTML, like Gecko) draw.io/21.5.1 Chrome/112.0.5615.204 Electron/24.6.0 Safari/537.36" etag="l6hFgX6kBmqN2PwyIsP4" version="21.5.1" type="device">
  <diagram name="Page-1" id="qORSVjUhGMG5qpyau0mE">
    <mxGraphModel dx="1556" dy="1003" grid="1" gridSize="10" guides="1" tooltips="1" connect="1" arrows="1" fold="1" page="1" pageScale="1" pageWidth="1" pageHeight="20" math="0" shadow="0">
      <root>
        <mxCell id="0" />
        <mxCell id="1" parent="0" />
        <mxCell id="z0xMAzS1gagPyP16ZyKn-1" value="&lt;font style=&quot;font-size: 20px;&quot;&gt;BW&lt;/font&gt;" style="rounded=0;whiteSpace=wrap;html=1;" vertex="1" parent="1">
          <mxGeometry x="-360" y="200" width="70" height="60" as="geometry" />
        </mxCell>
        <mxCell id="z0xMAzS1gagPyP16ZyKn-2" value="&lt;font style=&quot;font-size: 20px;&quot;&gt;RC&lt;/font&gt;" style="rounded=0;whiteSpace=wrap;html=1;" vertex="1" parent="1">
          <mxGeometry x="-290" y="200" width="70" height="60" as="geometry" />
        </mxCell>
        <mxCell id="z0xMAzS1gagPyP16ZyKn-3" value="&lt;font style=&quot;font-size: 20px;&quot;&gt;VA&lt;/font&gt;" style="rounded=0;whiteSpace=wrap;html=1;" vertex="1" parent="1">
          <mxGeometry x="-220" y="200" width="70" height="60" as="geometry" />
        </mxCell>
        <mxCell id="z0xMAzS1gagPyP16ZyKn-4" value="&lt;font style=&quot;font-size: 20px;&quot;&gt;SA&lt;/font&gt;" style="rounded=0;whiteSpace=wrap;html=1;" vertex="1" parent="1">
          <mxGeometry x="-150" y="200" width="70" height="60" as="geometry" />
        </mxCell>
        <mxCell id="z0xMAzS1gagPyP16ZyKn-5" value="&lt;font style=&quot;font-size: 20px;&quot;&gt;ST&lt;/font&gt;" style="rounded=0;whiteSpace=wrap;html=1;" vertex="1" parent="1">
          <mxGeometry x="-80" y="200" width="70" height="60" as="geometry" />
        </mxCell>
        <mxCell id="z0xMAzS1gagPyP16ZyKn-6" value="&lt;font style=&quot;font-size: 20px;&quot;&gt;LT&lt;/font&gt;" style="rounded=0;whiteSpace=wrap;html=1;" vertex="1" parent="1">
          <mxGeometry x="-10" y="200" width="70" height="60" as="geometry" />
        </mxCell>
        <mxCell id="z0xMAzS1gagPyP16ZyKn-7" value="&lt;font style=&quot;font-size: 20px;&quot;&gt;BW&lt;/font&gt;" style="rounded=0;whiteSpace=wrap;html=1;" vertex="1" parent="1">
          <mxGeometry x="-290" y="260" width="70" height="60" as="geometry" />
        </mxCell>
        <mxCell id="z0xMAzS1gagPyP16ZyKn-10" value="&lt;font style=&quot;font-size: 20px;&quot;&gt;SA&lt;/font&gt;" style="rounded=0;whiteSpace=wrap;html=1;" vertex="1" parent="1">
          <mxGeometry x="-80" y="260" width="70" height="60" as="geometry" />
        </mxCell>
        <mxCell id="z0xMAzS1gagPyP16ZyKn-11" value="&lt;font style=&quot;font-size: 20px;&quot;&gt;ST&lt;/font&gt;" style="rounded=0;whiteSpace=wrap;html=1;" vertex="1" parent="1">
          <mxGeometry x="-10" y="260" width="70" height="60" as="geometry" />
        </mxCell>
        <mxCell id="z0xMAzS1gagPyP16ZyKn-12" value="&lt;font style=&quot;font-size: 20px;&quot;&gt;LT&lt;/font&gt;" style="rounded=0;whiteSpace=wrap;html=1;" vertex="1" parent="1">
          <mxGeometry x="60" y="260" width="70" height="60" as="geometry" />
        </mxCell>
        <mxCell id="z0xMAzS1gagPyP16ZyKn-13" value="&lt;font style=&quot;font-size: 20px;&quot;&gt;BW&lt;/font&gt;" style="rounded=0;whiteSpace=wrap;html=1;" vertex="1" parent="1">
          <mxGeometry x="-220" y="320" width="70" height="60" as="geometry" />
        </mxCell>
        <mxCell id="z0xMAzS1gagPyP16ZyKn-16" value="&lt;font style=&quot;font-size: 20px;&quot;&gt;SA&lt;/font&gt;" style="rounded=0;whiteSpace=wrap;html=1;" vertex="1" parent="1">
          <mxGeometry x="-10" y="320" width="70" height="60" as="geometry" />
        </mxCell>
        <mxCell id="z0xMAzS1gagPyP16ZyKn-17" value="&lt;font style=&quot;font-size: 20px;&quot;&gt;ST&lt;/font&gt;" style="rounded=0;whiteSpace=wrap;html=1;" vertex="1" parent="1">
          <mxGeometry x="60" y="320" width="70" height="60" as="geometry" />
        </mxCell>
        <mxCell id="z0xMAzS1gagPyP16ZyKn-18" value="&lt;font style=&quot;font-size: 20px;&quot;&gt;LT&lt;/font&gt;" style="rounded=0;whiteSpace=wrap;html=1;" vertex="1" parent="1">
          <mxGeometry x="130" y="320" width="70" height="60" as="geometry" />
        </mxCell>
        <mxCell id="z0xMAzS1gagPyP16ZyKn-19" value="&lt;font style=&quot;font-size: 20px;&quot;&gt;BW&lt;/font&gt;" style="rounded=0;whiteSpace=wrap;html=1;" vertex="1" parent="1">
          <mxGeometry x="-150" y="380" width="70" height="60" as="geometry" />
        </mxCell>
        <mxCell id="z0xMAzS1gagPyP16ZyKn-22" value="&lt;font style=&quot;font-size: 20px;&quot;&gt;SA&lt;/font&gt;" style="rounded=0;whiteSpace=wrap;html=1;" vertex="1" parent="1">
          <mxGeometry x="60" y="380" width="70" height="60" as="geometry" />
        </mxCell>
        <mxCell id="z0xMAzS1gagPyP16ZyKn-23" value="&lt;font style=&quot;font-size: 20px;&quot;&gt;ST&lt;/font&gt;" style="rounded=0;whiteSpace=wrap;html=1;" vertex="1" parent="1">
          <mxGeometry x="130" y="380" width="70" height="60" as="geometry" />
        </mxCell>
        <mxCell id="z0xMAzS1gagPyP16ZyKn-24" value="&lt;font style=&quot;font-size: 20px;&quot;&gt;LT&lt;/font&gt;" style="rounded=0;whiteSpace=wrap;html=1;" vertex="1" parent="1">
          <mxGeometry x="200" y="380" width="70" height="60" as="geometry" />
        </mxCell>
        <mxCell id="z0xMAzS1gagPyP16ZyKn-25" value="&lt;font style=&quot;font-size: 15px;&quot;&gt;Head Flit&lt;/font&gt;" style="text;html=1;align=center;verticalAlign=middle;resizable=0;points=[];autosize=1;strokeColor=none;fillColor=none;" vertex="1" parent="1">
          <mxGeometry x="-442" y="220" width="80" height="30" as="geometry" />
        </mxCell>
        <mxCell id="z0xMAzS1gagPyP16ZyKn-26" value="&lt;font style=&quot;font-size: 15px;&quot;&gt;Body Flit&lt;/font&gt;" style="text;html=1;align=center;verticalAlign=middle;resizable=0;points=[];autosize=1;strokeColor=none;fillColor=none;" vertex="1" parent="1">
          <mxGeometry x="-441" y="280" width="80" height="30" as="geometry" />
        </mxCell>
        <mxCell id="z0xMAzS1gagPyP16ZyKn-27" value="&lt;font style=&quot;font-size: 15px;&quot;&gt;Body Flit&lt;/font&gt;" style="text;html=1;align=center;verticalAlign=middle;resizable=0;points=[];autosize=1;strokeColor=none;fillColor=none;" vertex="1" parent="1">
          <mxGeometry x="-440" y="340" width="80" height="30" as="geometry" />
        </mxCell>
        <mxCell id="z0xMAzS1gagPyP16ZyKn-28" value="&lt;font style=&quot;font-size: 15px;&quot;&gt;Tail Flit&lt;/font&gt;" style="text;html=1;align=center;verticalAlign=middle;resizable=0;points=[];autosize=1;strokeColor=none;fillColor=none;" vertex="1" parent="1">
          <mxGeometry x="-442" y="395" width="70" height="30" as="geometry" />
        </mxCell>
        <mxCell id="z0xMAzS1gagPyP16ZyKn-31" value="" style="group" vertex="1" connectable="0" parent="1">
          <mxGeometry x="-220" y="260" width="70" height="60" as="geometry" />
        </mxCell>
        <mxCell id="z0xMAzS1gagPyP16ZyKn-8" value="" style="rounded=0;whiteSpace=wrap;html=1;" vertex="1" parent="z0xMAzS1gagPyP16ZyKn-31">
          <mxGeometry width="70" height="60" as="geometry" />
        </mxCell>
        <mxCell id="z0xMAzS1gagPyP16ZyKn-29" value="" style="endArrow=none;html=1;rounded=0;entryX=1;entryY=0;entryDx=0;entryDy=0;" edge="1" parent="z0xMAzS1gagPyP16ZyKn-31" target="z0xMAzS1gagPyP16ZyKn-8">
          <mxGeometry width="50" height="50" relative="1" as="geometry">
            <mxPoint y="60" as="sourcePoint" />
            <mxPoint x="50" y="10" as="targetPoint" />
          </mxGeometry>
        </mxCell>
        <mxCell id="z0xMAzS1gagPyP16ZyKn-30" value="" style="endArrow=none;html=1;rounded=0;entryX=1;entryY=1;entryDx=0;entryDy=0;exitX=0;exitY=0;exitDx=0;exitDy=0;" edge="1" parent="z0xMAzS1gagPyP16ZyKn-31" source="z0xMAzS1gagPyP16ZyKn-8" target="z0xMAzS1gagPyP16ZyKn-8">
          <mxGeometry width="50" height="50" relative="1" as="geometry">
            <mxPoint x="10" y="70" as="sourcePoint" />
            <mxPoint x="80" y="10" as="targetPoint" />
          </mxGeometry>
        </mxCell>
        <mxCell id="z0xMAzS1gagPyP16ZyKn-32" value="" style="group" vertex="1" connectable="0" parent="1">
          <mxGeometry x="-150" y="260" width="70" height="60" as="geometry" />
        </mxCell>
        <mxCell id="z0xMAzS1gagPyP16ZyKn-33" value="" style="rounded=0;whiteSpace=wrap;html=1;" vertex="1" parent="z0xMAzS1gagPyP16ZyKn-32">
          <mxGeometry width="70" height="60" as="geometry" />
        </mxCell>
        <mxCell id="z0xMAzS1gagPyP16ZyKn-34" value="" style="endArrow=none;html=1;rounded=0;entryX=1;entryY=0;entryDx=0;entryDy=0;" edge="1" parent="z0xMAzS1gagPyP16ZyKn-32" target="z0xMAzS1gagPyP16ZyKn-33">
          <mxGeometry width="50" height="50" relative="1" as="geometry">
            <mxPoint y="60" as="sourcePoint" />
            <mxPoint x="50" y="10" as="targetPoint" />
          </mxGeometry>
        </mxCell>
        <mxCell id="z0xMAzS1gagPyP16ZyKn-35" value="" style="endArrow=none;html=1;rounded=0;entryX=1;entryY=1;entryDx=0;entryDy=0;exitX=0;exitY=0;exitDx=0;exitDy=0;" edge="1" parent="z0xMAzS1gagPyP16ZyKn-32" source="z0xMAzS1gagPyP16ZyKn-33" target="z0xMAzS1gagPyP16ZyKn-33">
          <mxGeometry width="50" height="50" relative="1" as="geometry">
            <mxPoint x="10" y="70" as="sourcePoint" />
            <mxPoint x="80" y="10" as="targetPoint" />
          </mxGeometry>
        </mxCell>
        <mxCell id="z0xMAzS1gagPyP16ZyKn-36" value="" style="group" vertex="1" connectable="0" parent="1">
          <mxGeometry x="-150" y="320" width="70" height="60" as="geometry" />
        </mxCell>
        <mxCell id="z0xMAzS1gagPyP16ZyKn-37" value="" style="rounded=0;whiteSpace=wrap;html=1;" vertex="1" parent="z0xMAzS1gagPyP16ZyKn-36">
          <mxGeometry width="70" height="60" as="geometry" />
        </mxCell>
        <mxCell id="z0xMAzS1gagPyP16ZyKn-38" value="" style="endArrow=none;html=1;rounded=0;entryX=1;entryY=0;entryDx=0;entryDy=0;" edge="1" parent="z0xMAzS1gagPyP16ZyKn-36" target="z0xMAzS1gagPyP16ZyKn-37">
          <mxGeometry width="50" height="50" relative="1" as="geometry">
            <mxPoint y="60" as="sourcePoint" />
            <mxPoint x="50" y="10" as="targetPoint" />
          </mxGeometry>
        </mxCell>
        <mxCell id="z0xMAzS1gagPyP16ZyKn-39" value="" style="endArrow=none;html=1;rounded=0;entryX=1;entryY=1;entryDx=0;entryDy=0;exitX=0;exitY=0;exitDx=0;exitDy=0;" edge="1" parent="z0xMAzS1gagPyP16ZyKn-36" source="z0xMAzS1gagPyP16ZyKn-37" target="z0xMAzS1gagPyP16ZyKn-37">
          <mxGeometry width="50" height="50" relative="1" as="geometry">
            <mxPoint x="10" y="70" as="sourcePoint" />
            <mxPoint x="80" y="10" as="targetPoint" />
          </mxGeometry>
        </mxCell>
        <mxCell id="z0xMAzS1gagPyP16ZyKn-40" value="" style="group" vertex="1" connectable="0" parent="1">
          <mxGeometry x="-80" y="320" width="70" height="60" as="geometry" />
        </mxCell>
        <mxCell id="z0xMAzS1gagPyP16ZyKn-41" value="" style="rounded=0;whiteSpace=wrap;html=1;" vertex="1" parent="z0xMAzS1gagPyP16ZyKn-40">
          <mxGeometry width="70" height="60" as="geometry" />
        </mxCell>
        <mxCell id="z0xMAzS1gagPyP16ZyKn-42" value="" style="endArrow=none;html=1;rounded=0;entryX=1;entryY=0;entryDx=0;entryDy=0;" edge="1" parent="z0xMAzS1gagPyP16ZyKn-40" target="z0xMAzS1gagPyP16ZyKn-41">
          <mxGeometry width="50" height="50" relative="1" as="geometry">
            <mxPoint y="60" as="sourcePoint" />
            <mxPoint x="50" y="10" as="targetPoint" />
          </mxGeometry>
        </mxCell>
        <mxCell id="z0xMAzS1gagPyP16ZyKn-43" value="" style="endArrow=none;html=1;rounded=0;entryX=1;entryY=1;entryDx=0;entryDy=0;exitX=0;exitY=0;exitDx=0;exitDy=0;" edge="1" parent="z0xMAzS1gagPyP16ZyKn-40" source="z0xMAzS1gagPyP16ZyKn-41" target="z0xMAzS1gagPyP16ZyKn-41">
          <mxGeometry width="50" height="50" relative="1" as="geometry">
            <mxPoint x="10" y="70" as="sourcePoint" />
            <mxPoint x="80" y="10" as="targetPoint" />
          </mxGeometry>
        </mxCell>
        <mxCell id="z0xMAzS1gagPyP16ZyKn-44" value="" style="group" vertex="1" connectable="0" parent="1">
          <mxGeometry x="-80" y="380" width="70" height="60" as="geometry" />
        </mxCell>
        <mxCell id="z0xMAzS1gagPyP16ZyKn-45" value="" style="rounded=0;whiteSpace=wrap;html=1;" vertex="1" parent="z0xMAzS1gagPyP16ZyKn-44">
          <mxGeometry width="70" height="60" as="geometry" />
        </mxCell>
        <mxCell id="z0xMAzS1gagPyP16ZyKn-46" value="" style="endArrow=none;html=1;rounded=0;entryX=1;entryY=0;entryDx=0;entryDy=0;" edge="1" parent="z0xMAzS1gagPyP16ZyKn-44" target="z0xMAzS1gagPyP16ZyKn-45">
          <mxGeometry width="50" height="50" relative="1" as="geometry">
            <mxPoint y="60" as="sourcePoint" />
            <mxPoint x="50" y="10" as="targetPoint" />
          </mxGeometry>
        </mxCell>
        <mxCell id="z0xMAzS1gagPyP16ZyKn-47" value="" style="endArrow=none;html=1;rounded=0;entryX=1;entryY=1;entryDx=0;entryDy=0;exitX=0;exitY=0;exitDx=0;exitDy=0;" edge="1" parent="z0xMAzS1gagPyP16ZyKn-44" source="z0xMAzS1gagPyP16ZyKn-45" target="z0xMAzS1gagPyP16ZyKn-45">
          <mxGeometry width="50" height="50" relative="1" as="geometry">
            <mxPoint x="10" y="70" as="sourcePoint" />
            <mxPoint x="80" y="10" as="targetPoint" />
          </mxGeometry>
        </mxCell>
        <mxCell id="z0xMAzS1gagPyP16ZyKn-48" value="" style="group" vertex="1" connectable="0" parent="1">
          <mxGeometry x="-10" y="380" width="70" height="60" as="geometry" />
        </mxCell>
        <mxCell id="z0xMAzS1gagPyP16ZyKn-49" value="" style="rounded=0;whiteSpace=wrap;html=1;" vertex="1" parent="z0xMAzS1gagPyP16ZyKn-48">
          <mxGeometry width="70" height="60" as="geometry" />
        </mxCell>
        <mxCell id="z0xMAzS1gagPyP16ZyKn-50" value="" style="endArrow=none;html=1;rounded=0;entryX=1;entryY=0;entryDx=0;entryDy=0;" edge="1" parent="z0xMAzS1gagPyP16ZyKn-48" target="z0xMAzS1gagPyP16ZyKn-49">
          <mxGeometry width="50" height="50" relative="1" as="geometry">
            <mxPoint y="60" as="sourcePoint" />
            <mxPoint x="50" y="10" as="targetPoint" />
          </mxGeometry>
        </mxCell>
        <mxCell id="z0xMAzS1gagPyP16ZyKn-51" value="" style="endArrow=none;html=1;rounded=0;entryX=1;entryY=1;entryDx=0;entryDy=0;exitX=0;exitY=0;exitDx=0;exitDy=0;" edge="1" parent="z0xMAzS1gagPyP16ZyKn-48" source="z0xMAzS1gagPyP16ZyKn-49" target="z0xMAzS1gagPyP16ZyKn-49">
          <mxGeometry width="50" height="50" relative="1" as="geometry">
            <mxPoint x="10" y="70" as="sourcePoint" />
            <mxPoint x="80" y="10" as="targetPoint" />
          </mxGeometry>
        </mxCell>
      </root>
    </mxGraphModel>
  </diagram>
</mxfile>
